<?xml version="1.0" encoding="UTF-8" standalone="no"?>
<svg xmlns="http://www.w3.org/2000/svg" width="600" height="600" version="1.0">

  <!-- Disk structure. Made by MistWiz and released in the Public Domain. -->

  <defs id="shapes_n_styles">
      <marker orient="auto" refY="0.0" refX="0.0" id="Arrow1Mend" style="overflow:visible;">
      <path d="M 0.0,0.0 L 5.0,-5.0 L -12.5,0.0 L 5.0,5.0 L 0.0,0.0 z "
         style="fill-rule:evenodd;stroke:#000000;stroke-width:1.0pt;marker-start:none;"
         transform="scale(0.4) rotate(180)" />

    </marker>
    <style type="text/css"><![CDATA[
      .simple { stroke:#000000; stroke-width:1; fill:none; }
      .arrow { stroke:#000000; stroke-width:2; marker-end:url(#Arrow1Mend) }
      .lightGray { stroke:#000000; stroke-width:1; fill:#E0E0E0; }
      .white { stroke:#000000; stroke-width:1; fill:#FFFFFF; }
      .lightRed { stroke:#FF0000; stroke-width:1; fill:#FF8080; }
      .lightBlue { stroke:#0000FF; stroke-width:1; fill:#8080FF;}
      .violet { stroke:#FF00FF; stroke-width:1; fill:#A000A0;}    
      .green { stroke:#00FF00; stroke-width:1; fill:#00A000;}
      .labels {font-size:32px; font-style:normal; font-family:Bitstream Vera Sans}
    ]]></style>

  </defs>
                                                
  <circle id="radius200" class="lightGray" cx="300" cy="300" r="200" />

 <path id="track" class="lightRed"
  d="M 360,196.08 A 120,120 0 1 0 403.92,240  L 395.26,245 A 110,110 0 1 1 355,204.74 Z" />

 <path id="sector" class="lightBlue"
  d="M 325,256.69 A 50,50 0 0 1 343.30,275  L 473.20,200 A 200,200 0 0 0 400,126.79 Z" />

 <path id="sectorOfTrack"  class="violet"
  d="M 360,196.08 A 120,120 0 0 1 403.92,240  L 395.26,245 A 110,110 0 0 0 355,204.74 Z" />

 <path id="cluster" class="green"
  d="M 210, 455.8845727 A 180 180 0 0 0 455.8845727, 390 L 447.2243186, 385 A 170 170 0 0 1 215, 447.2243186 Z" />

  <circle id="radius50" class="white" cx="300" cy="300" r="50" />
  <circle id="radius60" class="simple" cx="300" cy="300" r="60" />
  <circle id="radius70" class="simple" cx="300" cy="300" r="70" />
  <circle id="radius80" class="simple" cx="300" cy="300" r="80" />
  <circle id="radius90" class="simple" cx="300" cy="300" r="90" />
  <circle id="radius100" class="simple" cx="300" cy="300" r="100" />
  <circle id="radius110" class="simple" cx="300" cy="300" r="110" />
  <circle id="radius120" class="simple" cx="300" cy="300" r="120" />
  <circle id="radius130" class="simple" cx="300" cy="300" r="130" />
  <circle id="radius140" class="simple" cx="300" cy="300" r="140" />
  <circle id="radius150" class="simple" cx="300" cy="300" r="150" />
  <circle id="radius160" class="simple" cx="300" cy="300" r="160" />
  <circle id="radius170" class="simple" cx="300" cy="300" r="170" />
  <circle id="radius180" class="simple" cx="300" cy="300" r="180" />
  <circle id="radius190" class="simple" cx="300" cy="300" r="190" />
                                                                           
  <line id="0"   class="simple" x1="350" y1="300" x2="500" y2="300" />
  <line id="30"  class="simple" x1="473.20" y1="200" x2="343.30" y2="275" />
  <line id="60"  class="simple" x1="400" y1="128.80" x2="325" y2="256.70" />
  <line id="90"  class="simple" x1="300" y1="100" x2="300" y2="250" />
  <line id="120" class="simple" x1="200" y1="128.80" x2="275" y2="256.70" />
  <line id="150" class="simple" x1="128.80" y1="200" x2="256.70" y2="275" />
  <line id="180" class="simple" x1="100" y1="300" x2="250" y2="300" />
  <line id="210" class="simple" x1="128.80" y1="400" x2="256.70" y2="325" />
  <line id="240" class="simple" x1="200" y1="473.20" x2="275" y2="343.30" />
  <line id="270" class="simple" x1="300" y1="350" x2="300" y2="500" />
  <line id="300" class="simple" x1="400" y1="473.20" x2="325" y2="343.30" />
  <line id="330" class="simple" x1="473.20" y1="400" x2="343.30" y2="325" />
             
  <!-- A for track -->
  <path id="arrowA" class="simple" d="M 364.7047613,58.51854343 L 329.7641902,188.91853 Z" />
  <text class="labels" x="364.7047613" y="58.51854343">A</text>

  <!-- B for sector  -->
  <path id="arrowC" class="simple" d="M 491.5111108, 139.3030976 L 453.2088886,171.4424781 Z" />
  <text  class="labels" x="491.5111108" y="139.3030976">B</text>

  <!-- C for sector of track -->
  <path id="arrowB" class="simple" d="M 460.6969024, 108.4888892 L 373.9205751,211.904889 Z" />
  <text class="labels" x="460.6969024" y="108.4888892">C</text>

  <!-- D for cluster  -->
  <path id="arrowD" class="simple" d="M 364.7047613,541.4814566  L 345.2933329,	469.0370196 Z" />
  <text class="labels" x="364.7047613" y="541.4814566">D</text>

</svg>

